<svg width="24" height="25" viewBox="0 0 24 25" fill="none" xmlns="http://www.w3.org/2000/svg">
<g clip-path="url(#clip0_759_6331)">
<path d="M16.773 0.512011C16.722 0.455011 14.8845 0.534511 13.2855 2.27001C11.6865 4.00401 11.9325 5.99301 11.9685 6.04401C12.0045 6.09501 14.2485 6.17451 15.681 4.15701C17.1135 2.13951 16.824 0.570511 16.773 0.512011ZM21.744 18.1115C21.672 17.9675 18.2565 16.2605 18.5745 12.9785C18.8925 9.69501 21.087 8.79501 21.1215 8.69751C21.156 8.60001 20.226 7.51251 19.2405 6.96201C18.5169 6.57389 17.7161 6.35152 16.896 6.31101C16.734 6.30651 16.1715 6.16851 15.015 6.48501C14.253 6.69351 12.5355 7.36851 12.063 7.39551C11.589 7.42251 10.179 6.61251 8.66251 6.39801C7.69201 6.21051 6.66301 6.59451 5.92651 6.89001C5.19151 7.18401 3.79351 8.02101 2.81551 10.2455C1.83751 12.4685 2.34901 15.9905 2.71501 17.0855C3.08101 18.179 3.65251 19.9715 4.62451 21.2795C5.48851 22.7555 6.63451 23.78 7.11301 24.128C7.59151 24.476 8.94151 24.707 9.87751 24.2285C10.6305 23.7665 11.9895 23.501 12.5265 23.5205C13.062 23.54 14.118 23.7515 15.1995 24.329C16.056 24.6245 16.866 24.5015 17.6775 24.1715C18.489 23.84 19.6635 22.583 21.0345 20.0345C21.555 18.8495 21.792 18.209 21.744 18.1115Z" fill="black"/>
<path d="M16.773 0.512011C16.722 0.455011 14.8845 0.534511 13.2855 2.27001C11.6865 4.00401 11.9325 5.99301 11.9685 6.04401C12.0045 6.09501 14.2485 6.17451 15.681 4.15701C17.1135 2.13951 16.824 0.570511 16.773 0.512011ZM21.744 18.1115C21.672 17.9675 18.2565 16.2605 18.5745 12.9785C18.8925 9.69501 21.087 8.79501 21.1215 8.69751C21.156 8.60001 20.226 7.51251 19.2405 6.96201C18.5169 6.57389 17.7161 6.35152 16.896 6.31101C16.734 6.30651 16.1715 6.16851 15.015 6.48501C14.253 6.69351 12.5355 7.36851 12.063 7.39551C11.589 7.42251 10.179 6.61251 8.66251 6.39801C7.69201 6.21051 6.66301 6.59451 5.92651 6.89001C5.19151 7.18401 3.79351 8.02101 2.81551 10.2455C1.83751 12.4685 2.34901 15.9905 2.71501 17.0855C3.08101 18.179 3.65251 19.9715 4.62451 21.2795C5.48851 22.7555 6.63451 23.78 7.11301 24.128C7.59151 24.476 8.94151 24.707 9.87751 24.2285C10.6305 23.7665 11.9895 23.501 12.5265 23.5205C13.062 23.54 14.118 23.7515 15.1995 24.329C16.056 24.6245 16.866 24.5015 17.6775 24.1715C18.489 23.84 19.6635 22.583 21.0345 20.0345C21.555 18.8495 21.792 18.209 21.744 18.1115Z" fill="black"/>
</g>
<defs>
<clipPath id="clip0_759_6331">
<rect width="24" height="24" fill="white" transform="translate(0 0.5)"/>
</clipPath>
</defs>
</svg>
