<svg width="28" height="28" viewBox="0 0 28 28" fill="none" xmlns="http://www.w3.org/2000/svg">
<path fill-rule="evenodd" clip-rule="evenodd" d="M10.3833 2.33301H17.5817C20.7433 2.33301 23.2983 3.58134 23.3333 6.75467V24.4647C23.3333 24.663 23.2867 24.8613 23.1933 25.0363C23.0417 25.3163 22.785 25.5263 22.47 25.6197C22.1667 25.713 21.8283 25.6663 21.5483 25.503L13.9883 21.723L6.41667 25.503C6.24284 25.5952 6.04334 25.6547 5.845 25.6547C5.19167 25.6547 4.66667 25.118 4.66667 24.4647V6.75467C4.66667 3.58134 7.23334 2.33301 10.3833 2.33301ZM9.59 11.223H18.375C18.8767 11.223 19.285 10.8135 19.285 10.3013C19.285 9.78801 18.8767 9.37967 18.375 9.37967H9.59C9.08834 9.37967 8.68001 9.78801 8.68001 10.3013C8.68001 10.8135 9.08834 11.223 9.59 11.223Z" fill="#212121"/>
</svg>
