<svg width="80" height="80" viewBox="0 0 80 80" fill="none" xmlns="http://www.w3.org/2000/svg">
<rect width="80" height="80" rx="40" fill="#FF4D67" fill-opacity="0.08"/>
<path fill-rule="evenodd" clip-rule="evenodd" d="M46.5859 28C48.3739 28 50.0939 28.7067 51.3592 29.9747C52.6259 31.24 53.3339 32.9467 53.3339 34.7333V45.2667C53.3339 48.9867 50.3072 52 46.5859 52H33.4139C29.6925 52 26.6672 48.9867 26.6672 45.2667V34.7333C26.6672 31.0133 29.6792 28 33.4139 28H46.5859ZM48.7072 36.72L48.8139 36.6133C49.1325 36.2267 49.1325 35.6667 48.7992 35.28C48.6139 35.0813 48.3592 34.96 48.0939 34.9333C47.8139 34.9187 47.5472 35.0133 47.3459 35.2L41.3339 40C40.5605 40.6413 39.4525 40.6413 38.6672 40L32.6672 35.2C32.2525 34.8933 31.6792 34.9333 31.3339 35.2933C30.9739 35.6533 30.9339 36.2267 31.2392 36.6267L31.4139 36.8L37.4805 41.5333C38.2272 42.12 39.1325 42.44 40.0805 42.44C41.0259 42.44 41.9472 42.12 42.6925 41.5333L48.7072 36.72Z" fill="url(#paint0_linear_534_2159)"/>
<defs>
<linearGradient id="paint0_linear_534_2159" x1="53.3339" y1="52" x2="22.1698" y2="41.9603" gradientUnits="userSpaceOnUse">
<stop stop-color="#FF4D67"/>
<stop offset="1" stop-color="#FF8A9B"/>
</linearGradient>
</defs>
</svg>
