<svg width="24" height="24" viewBox="0 0 25 25" fill="none" xmlns="http://www.w3.org/2000/svg">
<g clip-path="url(#clip0_759_8383)">
<path d="M24.0078 12.7244C24.0078 11.7412 23.9295 11.0236 23.7598 10.2795H12.7295V14.7175H19.2041C19.0736 15.8204 18.3687 17.4814 16.8022 18.5975L16.7802 18.746L20.2678 21.4962L20.5095 21.5208C22.7285 19.4346 24.0078 16.3652 24.0078 12.7244Z" fill="#4285F4"/>
<path d="M12.7294 24.4176C15.9014 24.4176 18.5643 23.3545 20.5094 21.5209L16.8021 18.5976C15.8101 19.3018 14.4786 19.7934 12.7294 19.7934C9.62268 19.7934 6.98586 17.7074 6.0459 14.824L5.90813 14.8359L2.28168 17.6927L2.23425 17.8269C4.16618 21.7334 8.1345 24.4176 12.7294 24.4176Z" fill="#34A853"/>
<path d="M6.04609 14.824C5.79808 14.08 5.65454 13.2826 5.65454 12.4589C5.65454 11.635 5.79808 10.8378 6.03304 10.0937L6.02647 9.93519L2.35458 7.03247L2.23444 7.09064C1.43821 8.71174 0.981323 10.5322 0.981323 12.4589C0.981323 14.3855 1.43821 16.2059 2.23444 17.827L6.04609 14.824Z" fill="#FBBC05"/>
<path d="M12.7294 5.12403C14.9355 5.12403 16.4235 6.09401 17.2721 6.90461L20.5877 3.60928C18.5514 1.6826 15.9014 0.5 12.7294 0.5C8.13449 0.5 4.16617 3.18406 2.23425 7.09056L6.03285 10.0936C6.98585 7.2102 9.62267 5.12403 12.7294 5.12403Z" fill="#EB4335"/>
</g>
<defs>
<clipPath id="clip0_759_8383">
<rect width="23.04" height="24" fill="white" transform="translate(0.97998 0.5)"/>
</clipPath>
</defs>
</svg>
