<svg width="80" height="80" viewBox="0 0 80 80" fill="none" xmlns="http://www.w3.org/2000/svg">
<rect width="80" height="80" rx="40" fill="#FF4D67" fill-opacity="0.08"/>
<path fill-rule="evenodd" clip-rule="evenodd" d="M26.6667 40.0199C26.6667 32.996 32.28 26.6665 40.0267 26.6665C47.6 26.6665 53.3333 32.8758 53.3333 39.9798C53.3333 48.2188 46.6133 53.3332 40 53.3332C37.8133 53.3332 35.3867 52.7456 33.44 51.5972C32.76 51.1833 32.1867 50.8762 31.4533 51.1165L28.76 51.9177C28.08 52.1314 27.4667 51.5972 27.6667 50.8762L28.56 47.885C28.7067 47.471 28.68 47.0304 28.4667 46.6832C27.32 44.5734 26.6667 42.2632 26.6667 40.0199ZM38.2667 40.0199C38.2667 40.968 39.0267 41.7291 39.9733 41.7424C40.92 41.7424 41.68 40.968 41.68 40.0332C41.68 39.0851 40.92 38.324 39.9733 38.324C39.04 38.3106 38.2667 39.0851 38.2667 40.0199ZM44.4133 40.0332C44.4133 40.968 45.1733 41.7425 46.12 41.7425C47.0667 41.7425 47.8267 40.968 47.8267 40.0332C47.8267 39.0851 47.0667 38.324 46.12 38.324C45.1733 38.324 44.4133 39.0851 44.4133 40.0332ZM33.8267 41.7425C32.8933 41.7425 32.12 40.968 32.12 40.0332C32.12 39.0851 32.88 38.324 33.8267 38.324C34.7733 38.324 35.5333 39.0851 35.5333 40.0332C35.5333 40.968 34.7733 41.7291 33.8267 41.7425Z" fill="url(#paint0_linear_534_2153)"/>
<defs>
<linearGradient id="paint0_linear_534_2153" x1="53.3333" y1="53.3332" x2="21.6024" y2="44.1331" gradientUnits="userSpaceOnUse">
<stop stop-color="#FF4D67"/>
<stop offset="1" stop-color="#FF8A9B"/>
</linearGradient>
</defs>
</svg>
