<svg width="18" height="18" viewBox="0 0 18 18" fill="none" xmlns="http://www.w3.org/2000/svg">
    <path fill-rule="evenodd" clip-rule="evenodd"
        d="M5.10851 0.666992H12.8835C15.7168 0.666992 17.3335 2.26699 17.3335 5.10866V12.892C17.3335 15.717 15.7252 17.3337 12.8918 17.3337H5.10851C2.26684 17.3337 0.66684 15.717 0.66684 12.892V5.10866C0.66684 2.26699 2.26684 0.666992 5.10851 0.666992ZM9.68351 9.69199H12.0502C12.4335 9.68366 12.7418 9.37533 12.7418 8.99199C12.7418 8.60866 12.4335 8.30033 12.0502 8.30033H9.68351V5.95033C9.68351 5.56699 9.37517 5.25866 8.99184 5.25866C8.60851 5.25866 8.30017 5.56699 8.30017 5.95033V8.30033H5.94184C5.75851 8.30033 5.58351 8.37533 5.45017 8.50033C5.32517 8.63366 5.25017 8.80783 5.25017 8.99199C5.25017 9.37533 5.55851 9.68366 5.94184 9.69199H8.30017V12.0503C8.30017 12.4337 8.60851 12.742 8.99184 12.742C9.37517 12.742 9.68351 12.4337 9.68351 12.0503V9.69199Z"
        fill="#FF4D67" />
</svg>
