<svg width="28" height="28" viewBox="0 0 28 28" fill="none" xmlns="http://www.w3.org/2000/svg">
<path fill-rule="evenodd" clip-rule="evenodd" d="M11.576 25.4421C7.12632 25.4421 3.32532 24.7689 3.32532 22.0739C3.32532 19.3789 7.10182 16.9277 11.576 16.9277C16.0257 16.9277 19.8267 19.3556 19.8267 22.0494C19.8267 24.7432 16.0502 25.4421 11.576 25.4421Z" stroke="#212121" stroke-width="1.5" stroke-linecap="round" stroke-linejoin="round"/>
<path fill-rule="evenodd" clip-rule="evenodd" d="M11.576 13.0848C14.4962 13.0848 16.8645 10.7165 16.8645 7.79631C16.8645 4.87498 14.4962 2.50781 11.576 2.50781C8.65584 2.50781 6.28751 4.87498 6.28751 7.79631C6.27701 10.706 8.62901 13.0743 11.5387 13.0848H11.576Z" stroke="#212121" stroke-width="1.5" stroke-linecap="round" stroke-linejoin="round"/>
<path d="M22.3198 9.48438V14.1627" stroke="#212121" stroke-width="1.5" stroke-linecap="round" stroke-linejoin="round"/>
<path d="M24.7072 11.8216H19.9355" stroke="#212121" stroke-width="1.5" stroke-linecap="round" stroke-linejoin="round"/>
</svg>
